<svg width="19" height="18" viewBox="0 0 19 18" fill="none" xmlns="http://www.w3.org/2000/svg">
<g opacity="0.5">
<path d="M1.6897 6.74585C1.68993 6.59577 1.72868 6.44826 1.80223 6.31743C1.87578 6.18661 1.98167 6.07685 2.10978 5.99865L9.58263 1.43127L17.0555 5.99865C17.1836 6.07685 17.2895 6.18661 17.363 6.31743C17.4366 6.44826 17.4753 6.59577 17.4756 6.74585V15.4632C17.4756 15.6958 17.3832 15.9188 17.2187 16.0833C17.0542 16.2478 16.8312 16.3402 16.5986 16.3402H2.56669C2.3341 16.3402 2.11103 16.2478 1.94656 16.0833C1.78209 15.9188 1.6897 15.6958 1.6897 15.4632V6.74585Z" stroke="#03014C" stroke-width="1.75399"/>
<path d="M1.6897 7.13177L9.58263 11.9552L17.4756 7.13177" stroke="#03014C" stroke-width="1.75399" stroke-linecap="round"/>
</g>
</svg>
