<svg width="28" height="28" viewBox="0 0 28 28" fill="none" xmlns="http://www.w3.org/2000/svg">
<path d="M27.6366 14.3762C27.6558 6.82025 21.5823 0.683225 14.078 0.664165C6.56849 0.645091 0.469071 6.75119 0.449879 14.3072C0.432544 21.1323 5.38739 26.804 11.885 27.8455L11.9092 18.2908L8.45736 18.2821L8.4674 14.3284L11.9193 14.3372L11.9269 11.3221C11.9356 7.89505 13.9667 6.00756 17.0728 6.01545C18.5604 6.01923 20.117 6.2899 20.117 6.2899L20.1085 9.65543L18.3914 9.65107C16.7059 9.64679 16.1764 10.7012 16.1737 11.7826L16.1672 14.3471L19.9368 14.3567L19.321 18.3088L16.1571 18.3008L16.1329 27.8554C22.6305 26.8469 27.6192 21.2005 27.6366 14.3754L27.6366 14.3762Z" fill="#193FF6"/>
</svg>
