<svg width="15" height="20" viewBox="0 0 15 20" fill="none" xmlns="http://www.w3.org/2000/svg">
<path opacity="0.5" d="M7.58259 14.9324C8.54728 14.9324 9.33658 14.1431 9.33658 13.1784C9.33658 12.2137 8.54728 11.4244 7.58259 11.4244C6.6179 11.4244 5.82861 12.2137 5.82861 13.1784C5.82861 14.1431 6.6179 14.9324 7.58259 14.9324ZM12.8445 7.03946H11.9676V5.28548C11.9676 2.86498 10.0031 0.900513 7.58259 0.900513C5.16209 0.900513 3.19763 2.86498 3.19763 5.28548H4.86391C4.86391 3.78582 6.08293 2.5668 7.58259 2.5668C9.08225 2.5668 10.3013 3.78582 10.3013 5.28548V7.03946H2.32064C1.35594 7.03946 0.56665 7.82875 0.56665 8.79345V17.5634C0.56665 18.5281 1.35594 19.3174 2.32064 19.3174H12.8445C13.8092 19.3174 14.5985 18.5281 14.5985 17.5634V8.79345C14.5985 7.82875 13.8092 7.03946 12.8445 7.03946ZM12.8445 17.5634H2.32064V8.79345H12.8445V17.5634Z" fill="#03014C"/>
</svg>
