<svg width="18" height="19" viewBox="0 0 18 19" fill="none" xmlns="http://www.w3.org/2000/svg">
<path opacity="0.5" d="M16.901 15.4111C16.4809 14.4161 15.8714 13.5123 15.1062 12.7501C14.3434 11.9857 13.4398 11.3762 12.4453 10.9554C12.4364 10.9509 12.4275 10.9487 12.4186 10.9442C13.8058 9.94219 14.7077 8.30999 14.7077 6.46848C14.7077 3.41785 12.236 0.946167 9.18534 0.946167C6.13471 0.946167 3.66303 3.41785 3.66303 6.46848C3.66303 8.30999 4.56486 9.94219 5.95211 10.9465C5.94321 10.9509 5.9343 10.9531 5.92539 10.9576C4.92781 11.3784 4.03267 11.9819 3.26444 12.7523C2.50002 13.5151 1.89055 14.4188 1.46969 15.4133C1.05623 16.3869 0.833246 17.4308 0.8128 18.4884C0.812205 18.5122 0.816374 18.5358 0.82506 18.558C0.833746 18.5801 0.846773 18.6003 0.863374 18.6173C0.879976 18.6343 0.899815 18.6478 0.921723 18.657C0.943632 18.6663 0.967166 18.671 0.990939 18.671H2.32698C2.42496 18.671 2.50289 18.5931 2.50512 18.4973C2.54966 16.7783 3.23995 15.1684 4.4602 13.9481C5.72276 12.6855 7.3995 11.9908 9.18534 11.9908C10.9712 11.9908 12.6479 12.6855 13.9105 13.9481C15.1307 15.1684 15.821 16.7783 15.8656 18.4973C15.8678 18.5953 15.9457 18.671 16.0437 18.671H17.3797C17.4035 18.671 17.427 18.6663 17.449 18.657C17.4709 18.6478 17.4907 18.6343 17.5073 18.6173C17.5239 18.6003 17.5369 18.5801 17.5456 18.558C17.5543 18.5358 17.5585 18.5122 17.5579 18.4884C17.5356 17.424 17.3152 16.3886 16.901 15.4111ZM9.18534 10.2985C8.16327 10.2985 7.20131 9.89989 6.47762 9.1762C5.75393 8.45251 5.35535 7.49055 5.35535 6.46848C5.35535 5.44641 5.75393 4.48446 6.47762 3.76077C7.20131 3.03708 8.16327 2.63849 9.18534 2.63849C10.2074 2.63849 11.1694 3.03708 11.8931 3.76077C12.6167 4.48446 13.0153 5.44641 13.0153 6.46848C13.0153 7.49055 12.6167 8.45251 11.8931 9.1762C11.1694 9.89989 10.2074 10.2985 9.18534 10.2985Z" fill="#03014C"/>
</svg>
